# xmcd
#
# Track frame offsets:
#	150
#	16569
#	25424
#	41573
#	55964
#
# Disc length: 969 seconds
#
# Revision: 1
# Processed by: cddbd v1.5.2PL0 Copyright (c) Steve Scherf et al.
# Submitted via: audiograbber 1.83.01
#
DISCID=3303c705
DTITLE=Beccy Cole - Feel This Free (Bonus Disc)
DYEAR=2005
DGENRE=Country
TTITLE0=Ride 'Em Cowboy
TTITLE1=(You're So Square) Babe I Don't Care
TTITLE2=Don't This Road Look Rough And Rocky
TTITLE3=She Thinks I Still Care
TTITLE4=Pleasure And Pain
EXTD=
EXTT0=
EXTT1=
EXTT2=
EXTT3=
EXTT4=
PLAYORDER=
